Coordinates
version=1
nRows=33
nColumns=34
inDegrees=no

Units are S.I. units (second, meters, Newtons, ...)
If the header above contains a line with 'inDegrees', this indicates whether rotational values are in degrees (yes) or radians (no).

endheader
time	pelvis_tilt	pelvis_list	pelvis_rotation	pelvis_tx	pelvis_ty	pelvis_tz	hip_flexion_r	hip_adduction_r	hip_rotation_r	knee_angle_r	ankle_angle_r	subtalar_angle_r	mtp_angle_r	hip_flexion_l	hip_adduction_l	hip_rotation_l	knee_angle_l	ankle_angle_l	subtalar_angle_l	mtp_angle_l	lumbar_extension	lumbar_bending	lumbar_rotation	arm_flex_r	arm_add_r	arm_rot_r	elbow_flex_r	pro_sup_r	arm_flex_l	arm_add_l	arm_rot_l	elbow_flex_l	pro_sup_l
0.44	0.0182133	-0.0445322	-0.0625739	0.385408	0.952468	-0.211739	-0.0715519	0.0388372	-0.334351	0.238131	0.432622	0.181106	0	0.465382	-0.158025	-0.373874	0.236365	0.0760289	0.0868387	0	-0.126286	0.0442418	0.0729722	0.257824	-0.248321	-0.141759	0.807236	2.09	-0.30075	-0.0834312	-0.487047	0.424849	2.09
0.45	0.0162857	-0.0480895	-0.0699096	0.396933	0.950071	-0.211237	-0.0814057	0.0411655	-0.326895	0.242116	0.444537	0.182283	0	0.464547	-0.159548	-0.36747	0.19418	0.084259	0.0879152	0	-0.124548	0.0480722	0.0772504	0.26762	-0.249698	-0.133451	0.814284	2.09	-0.305486	-0.0806292	-0.491017	0.423754	2.09
0.46	0.0141984	-0.0509432	-0.0773027	0.408553	0.947602	-0.210817	-0.0907395	0.0423176	-0.319916	0.246963	0.456231	0.183867	0	0.463314	-0.161009	-0.356881	0.155653	0.0913747	0.080068	0	-0.122613	0.0510187	0.0812226	0.276316	-0.250409	-0.125699	0.82111	2.09	-0.309439	-0.0780903	-0.495394	0.422397	2.09
0.47	0.0120486	-0.0530518	-0.0847819	0.420283	0.945104	-0.210453	-0.0998283	0.0423308	-0.313366	0.252288	0.467303	0.185657	0	0.461658	-0.16263	-0.344133	0.121525	0.0966605	0.0647402	0	-0.120552	0.0529653	0.0850578	0.283624	-0.250378	-0.118901	0.827931	2.09	-0.312558	-0.076054	-0.499422	0.420584	2.09
0.48	0.0100698	-0.0543972	-0.0923227	0.43214	0.942625	-0.210129	-0.109126	0.0412318	-0.307245	0.257665	0.477388	0.187567	0	0.459331	-0.164173	-0.328556	0.0921544	0.0981449	0.039709	0	-0.118584	0.0538085	0.0887544	0.289419	-0.249544	-0.113169	0.834811	2.09	-0.314864	-0.074554	-0.503245	0.418404	2.09
0.49	0.00824445	-0.0551446	-0.0999402	0.444126	0.940202	-0.209807	-0.118826	0.0394198	-0.300663	0.262567	0.485688	0.188245	0	0.457586	-0.166691	-0.31909	0.0708448	0.100707	0.0200795	0	-0.116674	0.0536406	0.092388	0.293579	-0.247811	-0.108712	0.841713	2.09	-0.316353	-0.0737118	-0.506574	0.415781	2.09
0.5	0.00675089	-0.0552341	-0.107514	0.456251	0.937879	-0.209501	-0.129236	0.0368037	-0.293727	0.266764	0.492018	0.187847	0	0.456146	-0.16936	-0.312194	0.0573881	0.102142	0.00100705	0	-0.114972	0.0523619	0.0958158	0.296076	-0.245205	-0.105411	0.84857	2.09	-0.317063	-0.073429	-0.509955	0.412944	2.09
0.51	0.00547632	-0.054695	-0.114829	0.468517	0.935677	-0.20923	-0.140243	0.03338	-0.28687	0.270245	0.496221	0.186767	0	0.455646	-0.172167	-0.309934	0.0528862	0.104319	-0.0121113	0	-0.113301	0.0500257	0.0988297	0.296882	-0.241757	-0.103193	0.855192	2.09	-0.317048	-0.0737312	-0.513178	0.409943	2.09
0.52	0.00455481	-0.0533165	-0.121869	0.480935	0.933636	-0.20902	-0.151883	0.0288696	-0.279729	0.273147	0.498285	0.184818	0	0.455521	-0.174404	-0.309352	0.0561933	0.105434	-0.0233931	0	-0.111753	0.04642	0.101542	0.295825	-0.237615	-0.102106	0.861747	2.09	-0.31625	-0.0745784	-0.516444	0.406938	2.09
0.53	0.00388938	-0.0510038	-0.128349	0.493516	0.931771	-0.208924	-0.163831	0.023109	-0.272647	0.275853	0.498073	0.182085	0	0.455758	-0.175666	-0.310118	0.066341	0.105204	-0.0323108	0	-0.110153	0.0415381	0.103736	0.292852	-0.232914	-0.102081	0.868114	2.09	-0.314707	-0.0759805	-0.519372	0.40404	2.09
0.54	0.00345402	-0.0475976	-0.134024	0.50627	0.930104	-0.209	-0.175686	0.0158334	-0.265941	0.279017	0.495476	0.178669	0	0.456099	-0.175422	-0.311611	0.0816205	0.102712	-0.0394751	0	-0.108408	0.0353183	0.105283	0.2879	-0.227852	-0.103025	0.874224	2.09	-0.312399	-0.077936	-0.521556	0.401332	2.09
0.55	0.00340031	-0.0430861	-0.13876	0.519206	0.928681	-0.209285	-0.18754	0.0078751	-0.254609	0.282257	0.487847	0.166658	0	0.455791	-0.173091	-0.311344	0.0993558	0.095123	-0.0493089	0	-0.106677	0.0278072	0.106261	0.280888	-0.222579	-0.105139	0.880095	2.09	-0.30919	-0.0803689	-0.523072	0.398929	2.09
0.56	0.00335845	-0.0371121	-0.142021	0.532331	0.927474	-0.209899	-0.197547	-0.00334827	-0.251294	0.289312	0.480379	0.164333	0	0.455508	-0.168198	-0.311481	0.118615	0.0842994	-0.056433	0	-0.104422	0.0189057	0.106032	0.272017	-0.217441	-0.107441	0.885117	2.09	-0.305224	-0.0834801	-0.52157	0.396277	2.09
0.57	0.00361091	-0.0299099	-0.143823	0.545645	0.926549	-0.210847	-0.206102	-0.0162758	-0.248354	0.299304	0.469243	0.160128	0	0.454266	-0.160438	-0.308548	0.136777	0.0674195	-0.066482	0	-0.102043	0.00885129	0.104737	0.261382	-0.21248	-0.110159	0.889169	2.09	-0.300371	-0.0869207	-0.518541	0.393731	2.09
0.58	0.00413546	-0.0216936	-0.144078	0.559144	0.925934	-0.212148	-0.212711	-0.0306965	-0.24593	0.313091	0.454104	0.154089	0	0.451944	-0.149916	-0.302071	0.152896	0.0452204	-0.0790612	0	-0.0995721	-0.0020368	0.102262	0.24918	-0.207837	-0.11289	0.891902	2.09	-0.294659	-0.0906155	-0.513444	0.391063	2.09
0.59	0.00495012	-0.01278	-0.142862	0.572824	0.925657	-0.213787	-0.216966	-0.046246	-0.24374	0.331404	0.434524	0.145755	0	0.448479	-0.137132	-0.292489	0.166935	0.0198527	-0.0928108	0	-0.0971195	-0.0133833	0.0985943	0.235619	-0.203569	-0.115326	0.893072	2.09	-0.288171	-0.0943712	-0.506489	0.388324	2.09
0.6	0.0060985	-0.00354886	-0.140349	0.586674	0.925738	-0.215731	-0.218529	-0.0623074	-0.240567	0.354724	0.409495	0.132972	0	0.443715	-0.12258	-0.279142	0.179081	-0.00727305	-0.109522	0	-0.0948315	-0.0247672	0.0938241	0.220863	-0.199695	-0.117268	0.892585	2.09	-0.280987	-0.0980548	-0.497626	0.38556	2.09
0.61	0.00750307	0.00543547	-0.136689	0.60067	0.926163	-0.21792	-0.216802	-0.0786128	-0.238008	0.384012	0.379328	0.117885	0	0.438561	-0.108157	-0.268537	0.192203	-0.0277207	-0.118195	0	-0.0927774	-0.0356161	0.0877891	0.205267	-0.196201	-0.118126	0.890269	2.09	-0.273377	-0.101152	-0.48923	0.383741	2.09
0.62	0.00918091	0.0139793	-0.132063	0.614782	0.926918	-0.220311	-0.21138	-0.0946406	-0.234553	0.419514	0.342311	0.0967407	0	0.43278	-0.0940078	-0.259165	0.206243	-0.0417092	-0.123931	0	-0.0910416	-0.0457144	0.0806793	0.188901	-0.193048	-0.118023	0.88627	2.09	-0.265313	-0.103803	-0.480284	0.382768	2.09
0.63	0.0110014	0.0218537	-0.126543	0.628953	0.927963	-0.222865	-0.201734	-0.109802	-0.229338	0.461331	0.296437	0.0659592	0	0.426541	-0.0806628	-0.252121	0.221619	-0.0476111	-0.126273	0	-0.0895873	-0.0548148	0.0724894	0.171979	-0.190189	-0.116885	0.880604	2.09	-0.256816	-0.105991	-0.470936	0.382942	2.09
0.64	0.0129366	0.0294182	-0.120055	0.643124	0.929241	-0.225589	-0.187461	-0.12543	-0.226186	0.510033	0.242504	0.0296731	0	0.419791	-0.0679913	-0.249175	0.238201	-0.0440428	-0.122696	0	-0.0884544	-0.0633056	0.0629961	0.154789	-0.187496	-0.114772	0.873301	2.09	-0.247935	-0.107636	-0.462207	0.384831	2.09
0.65	0.0147996	0.037154	-0.112606	0.65722	0.930688	-0.228485	-0.168403	-0.142131	-0.225093	0.564936	0.179064	-0.0144199	0	0.412233	-0.0552894	-0.24952	0.254558	-0.0331322	-0.114812	0	-0.0874993	-0.0716876	0.0522401	0.137518	-0.184812	-0.112048	0.864391	2.09	-0.23858	-0.109012	-0.453321	0.388289	2.09
0.66	0.0162467	0.0449874	-0.104447	0.67115	0.932234	-0.23149	-0.144601	-0.159041	-0.223539	0.624201	0.102542	-0.0728453	0	0.404307	-0.0435059	-0.256816	0.270885	-0.0128399	-0.0951102	0	-0.0864957	-0.0799182	0.0405981	0.120373	-0.181989	-0.109148	0.853879	2.09	-0.228608	-0.110376	-0.443611	0.393047	2.09
0.67	0.0174384	0.0546273	-0.0951225	0.684903	0.933822	-0.234745	-0.117216	-0.180507	-0.228024	0.687006	0.0200753	-0.132511	0	0.39424	-0.0278022	-0.258238	0.281912	0.00292297	-0.0868448	0	-0.0855642	-0.0897516	0.0274532	0.103528	-0.178837	-0.106419	0.841863	2.09	-0.218102	-0.111894	-0.43311	0.399161	2.09
0.68	0.0180502	0.0649006	-0.0851836	0.698405	0.935407	-0.238087	-0.0870556	-0.203271	-0.232665	0.749945	-0.0709812	-0.202308	0	0.383217	-0.0112165	-0.260875	0.290041	0.0204707	-0.0756464	0	-0.0845989	-0.100043	0.013616	0.0871036	-0.175297	-0.104276	0.828391	2.09	-0.20686	-0.113771	-0.421078	0.406148	2.09
0.69	0.0181804	0.075489	-0.0747731	0.711646	0.936968	-0.241463	-0.0554307	-0.227022	-0.237728	0.81098	-0.163915	-0.276711	0	0.371064	0.00628026	-0.262366	0.29482	0.0374665	-0.0650355	0	-0.0837918	-0.110498	-0.000690095	0.0711646	-0.171317	-0.103028	0.813573	2.09	-0.194804	-0.116124	-0.407163	0.413737	2.09
0.7	0.0180256	0.085606	-0.0641856	0.724622	0.938511	-0.244781	-0.0233912	-0.250343	-0.242297	0.868494	-0.250636	-0.351215	0	0.357741	0.0238537	-0.261447	0.296574	0.0531227	-0.0566604	0	-0.0834346	-0.120335	-0.0150733	0.0557733	-0.166883	-0.102951	0.797481	2.09	-0.181798	-0.118992	-0.391182	0.421658	2.09
0.71	0.0178274	0.0944134	-0.0538262	0.737331	0.940058	-0.247938	0.00852212	-0.271648	-0.245431	0.921604	-0.322448	-0.421323	0	0.343298	0.0403819	-0.257657	0.296	0.0674268	-0.0511126	0	-0.083809	-0.128716	-0.0290736	0.0410271	-0.161977	-0.104277	0.780112	2.09	-0.167701	-0.122332	-0.37328	0.429742	2.09
0.72	0.0178655	0.101307	-0.044146	0.749772	0.941638	-0.250845	0.040167	-0.289794	-0.246584	0.969973	-0.370891	-0.481592	0	0.32777	0.0548968	-0.251147	0.293832	0.0806256	-0.0483685	0	-0.0851712	-0.135044	-0.0423053	0.0271042	-0.156573	-0.107112	0.761364	2.09	-0.152473	-0.125958	-0.354353	0.438121	2.09
0.73	0.0180625	0.105734	-0.0357874	0.761926	0.943258	-0.253405	0.0722799	-0.303151	-0.244436	1.01313	-0.396443	-0.533195	0	0.311698	0.0662456	-0.243165	0.290997	0.0933752	-0.0472357	0	-0.0873174	-0.138756	-0.0540655	0.014118	-0.150671	-0.111624	0.741136	2.09	-0.136023	-0.129804	-0.334431	0.446626	2.09
0.74	0.0186151	0.107623	-0.0291726	0.773808	0.944944	-0.255583	0.105017	-0.311431	-0.239091	1.05081	-0.397509	-0.5713	0	0.295082	0.0740856	-0.234722	0.28785	0.105901	-0.0469835	0	-0.0903275	-0.1398	-0.0641541	0.00227457	-0.14432	-0.117628	0.719351	2.09	-0.118566	-0.13349	-0.315306	0.455772	2.09
0.75	0.0192146	0.107035	-0.0247153	0.785428	0.946684	-0.257354	0.139087	-0.314042	-0.23014	1.08245	-0.381979	-0.598261	0	0.2784	0.0782741	-0.226821	0.284548	0.118143	-0.0472312	0	-0.0936604	-0.138237	-0.072062	-0.00851671	-0.137598	-0.125233	0.696096	2.09	-0.100208	-0.137102	-0.296035	0.465207	2.09
0.76	0.0199493	0.104182	-0.0225217	0.796832	0.948496	-0.258745	0.174143	-0.311244	-0.218321	1.1076	-0.353533	-0.610865	0	0.261453	0.0790635	-0.220219	0.280873	0.130036	-0.0475374	0	-0.0972673	-0.134285	-0.0778017	-0.0183346	-0.130677	-0.134256	0.671663	2.09	-0.0812522	-0.140416	-0.277428	0.475111	2.09
